<mxfile host="app.diagrams.net" modified="2021-11-13T05:24:38.313Z" agent="5.0 (Macintosh; Intel Mac OS X 10_15_7) AppleWebKit/537.36 (KHTML, like Gecko) Chrome/95.0.4638.69 Safari/537.36" etag="XhWNVGHauD7f5Jf-joCx" version="15.7.3" type="github">
  <diagram id="s9_dTgc7p5rhCksrBfY1" name="Page-1">
    <mxGraphModel dx="946" dy="503" grid="1" gridSize="10" guides="1" tooltips="1" connect="1" arrows="1" fold="1" page="1" pageScale="1" pageWidth="850" pageHeight="1100" math="0" shadow="0">
      <root>
        <mxCell id="0" />
        <mxCell id="1" parent="0" />
        <mxCell id="-2GKroH-sKb8QGA59u33-1" value="Load Balancer" style="rounded=1;whiteSpace=wrap;html=1;" vertex="1" parent="1">
          <mxGeometry x="450" y="140" width="120" height="60" as="geometry" />
        </mxCell>
        <mxCell id="-2GKroH-sKb8QGA59u33-2" value="" style="rounded=0;whiteSpace=wrap;html=1;" vertex="1" parent="1">
          <mxGeometry x="320" y="250" width="220" height="100" as="geometry" />
        </mxCell>
        <mxCell id="-2GKroH-sKb8QGA59u33-3" value="Auto Scaling TG Group" style="text;html=1;strokeColor=none;fillColor=none;align=center;verticalAlign=middle;whiteSpace=wrap;rounded=0;" vertex="1" parent="1">
          <mxGeometry x="320" y="250" width="120" height="30" as="geometry" />
        </mxCell>
        <mxCell id="-2GKroH-sKb8QGA59u33-4" value="Notification Server (Producers)" style="rounded=1;whiteSpace=wrap;html=1;" vertex="1" parent="1">
          <mxGeometry x="370" y="280" width="120" height="60" as="geometry" />
        </mxCell>
        <mxCell id="-2GKroH-sKb8QGA59u33-5" value="Messaging Queue&amp;nbsp;&lt;br&gt;(RabbitMQ, Redis Streams, &lt;b&gt;Kafka&lt;/b&gt;, Pulsar)&lt;br&gt;AWS SQS" style="rounded=1;whiteSpace=wrap;html=1;" vertex="1" parent="1">
          <mxGeometry x="330" y="420" width="150" height="90" as="geometry" />
        </mxCell>
        <mxCell id="-2GKroH-sKb8QGA59u33-11" value="" style="endArrow=classic;html=1;rounded=0;exitX=0.5;exitY=1;exitDx=0;exitDy=0;entryX=0.75;entryY=0;entryDx=0;entryDy=0;" edge="1" parent="1" source="-2GKroH-sKb8QGA59u33-1" target="-2GKroH-sKb8QGA59u33-3">
          <mxGeometry width="50" height="50" relative="1" as="geometry">
            <mxPoint x="380" y="180" as="sourcePoint" />
            <mxPoint x="610" y="290" as="targetPoint" />
          </mxGeometry>
        </mxCell>
        <mxCell id="-2GKroH-sKb8QGA59u33-12" value="Notification Write APIs" style="text;html=1;strokeColor=none;fillColor=none;align=center;verticalAlign=middle;whiteSpace=wrap;rounded=0;" vertex="1" parent="1">
          <mxGeometry x="380" y="200" width="60" height="30" as="geometry" />
        </mxCell>
        <mxCell id="-2GKroH-sKb8QGA59u33-13" value="" style="endArrow=classic;html=1;rounded=0;exitX=0.5;exitY=1;exitDx=0;exitDy=0;entryX=0.5;entryY=0;entryDx=0;entryDy=0;" edge="1" parent="1" source="-2GKroH-sKb8QGA59u33-2" target="-2GKroH-sKb8QGA59u33-5">
          <mxGeometry width="50" height="50" relative="1" as="geometry">
            <mxPoint x="560" y="340" as="sourcePoint" />
            <mxPoint x="610" y="290" as="targetPoint" />
          </mxGeometry>
        </mxCell>
        <mxCell id="-2GKroH-sKb8QGA59u33-18" value="Telcom SMS API Service" style="rounded=0;whiteSpace=wrap;html=1;" vertex="1" parent="1">
          <mxGeometry x="710" y="435" width="120" height="60" as="geometry" />
        </mxCell>
        <mxCell id="-2GKroH-sKb8QGA59u33-19" value="" style="endArrow=classic;html=1;rounded=0;exitX=1;exitY=0.5;exitDx=0;exitDy=0;entryX=0;entryY=0.5;entryDx=0;entryDy=0;" edge="1" parent="1" source="-2GKroH-sKb8QGA59u33-5" target="-2GKroH-sKb8QGA59u33-18">
          <mxGeometry width="50" height="50" relative="1" as="geometry">
            <mxPoint x="645" y="350" as="sourcePoint" />
            <mxPoint x="670" y="300" as="targetPoint" />
          </mxGeometry>
        </mxCell>
        <mxCell id="-2GKroH-sKb8QGA59u33-21" value="Sendgrid Email API Service" style="rounded=0;whiteSpace=wrap;html=1;" vertex="1" parent="1">
          <mxGeometry x="710" y="510" width="120" height="60" as="geometry" />
        </mxCell>
        <mxCell id="-2GKroH-sKb8QGA59u33-22" value="" style="endArrow=classic;html=1;rounded=0;exitX=1;exitY=0.5;exitDx=0;exitDy=0;entryX=0;entryY=0.5;entryDx=0;entryDy=0;" edge="1" parent="1" source="-2GKroH-sKb8QGA59u33-5" target="-2GKroH-sKb8QGA59u33-21">
          <mxGeometry width="50" height="50" relative="1" as="geometry">
            <mxPoint x="645" y="350" as="sourcePoint" />
            <mxPoint x="670" y="330" as="targetPoint" />
          </mxGeometry>
        </mxCell>
        <mxCell id="-2GKroH-sKb8QGA59u33-23" value="Push Notification Service" style="rounded=0;whiteSpace=wrap;html=1;" vertex="1" parent="1">
          <mxGeometry x="710" y="600" width="120" height="60" as="geometry" />
        </mxCell>
        <mxCell id="-2GKroH-sKb8QGA59u33-24" value="" style="endArrow=classic;html=1;rounded=0;entryX=-0.025;entryY=0.617;entryDx=0;entryDy=0;entryPerimeter=0;" edge="1" parent="1" target="-2GKroH-sKb8QGA59u33-23">
          <mxGeometry width="50" height="50" relative="1" as="geometry">
            <mxPoint x="480" y="465" as="sourcePoint" />
            <mxPoint x="710" y="450" as="targetPoint" />
          </mxGeometry>
        </mxCell>
        <mxCell id="-2GKroH-sKb8QGA59u33-32" value="User Identity Service (PII)" style="whiteSpace=wrap;html=1;aspect=fixed;" vertex="1" parent="1">
          <mxGeometry x="90" y="250" width="100" height="100" as="geometry" />
        </mxCell>
        <mxCell id="-2GKroH-sKb8QGA59u33-33" value="" style="endArrow=classic;html=1;rounded=0;exitX=0;exitY=0.5;exitDx=0;exitDy=0;" edge="1" parent="1" source="-2GKroH-sKb8QGA59u33-2">
          <mxGeometry width="50" height="50" relative="1" as="geometry">
            <mxPoint x="520" y="400" as="sourcePoint" />
            <mxPoint x="190" y="300" as="targetPoint" />
          </mxGeometry>
        </mxCell>
      </root>
    </mxGraphModel>
  </diagram>
</mxfile>
